<svg width="8" height="6" viewBox="0 0 8 6" fill="none" xmlns="http://www.w3.org/2000/svg">
<path d="M7.80997 0.575103L7.42493 0.189938C7.2915 0.0633248 7.13566 0 6.95778 0C6.77622 0 6.62223 0.0633248 6.49556 0.189938L4.00002 2.68556L1.50449 0.19001C1.37784 0.0633967 1.22382 7.19395e-05 1.04233 7.19395e-05C0.864354 7.19395e-05 0.70855 0.0633967 0.575103 0.19001L0.195118 0.575175C0.0650154 0.705187 0 0.86099 0 1.04244C0 1.22727 0.0650873 1.38131 0.1951 1.50453L3.53784 4.84729C3.66113 4.97732 3.8151 5.04239 4 5.04239C4.18143 5.04239 4.33722 4.97733 4.46719 4.84729L7.80995 1.50453C7.93662 1.37784 8 1.22382 8 1.04244C8.00002 0.864371 7.93664 0.708658 7.80997 0.575103Z" fill="#868991"/>
</svg>
